<?plantuml 1.2026.2?><svg xmlns="http://www.w3.org/2000/svg" xmlns:xlink="http://www.w3.org/1999/xlink" contentStyleType="text/css" data-diagram-type="CLASS" height="935px" preserveAspectRatio="none" style="width:2624px;height:935px;background:#FFFFFF;" version="1.1" viewBox="0 0 2624 935" width="2624px" zoomAndPan="magnify"><title>BlaiseConnect - MVC Sprint 1 avec fichiers et m&#233;thodes</title><defs/><g><g class="title" data-source-line="4"><text fill="#000000" font-family="sans-serif" font-size="14" font-weight="bold" lengthAdjust="spacing" textLength="439.3594" x="1085.6418" y="22.9951">BlaiseConnect - MVC Sprint 1 avec fichiers et m&#233;thodes</text></g><!--cluster VIEW - React--><g class="cluster" data-qualified-name="VIEW - React" data-source-line="9" id="ent0002"><path d="M45.39,175.2969 L147.7123,175.2969 A3.75,3.75 0 0 1 150.2123,177.7969 L157.2123,197.5938 L750.39,197.5938 A2.5,2.5 0 0 1 752.89,200.0938 L752.89,566.7969 A2.5,2.5 0 0 1 750.39,569.2969 L45.39,569.2969 A2.5,2.5 0 0 1 42.89,566.7969 L42.89,177.7969 A2.5,2.5 0 0 1 45.39,175.2969" fill="#E3F2FD" style="stroke:#000000;stroke-width:1.5;"/><line style="stroke:#000000;stroke-width:1.5;" x1="42.89" x2="157.2123" y1="197.5938" y2="197.5938"/><text fill="#000000" font-family="sans-serif" font-size="14" font-weight="bold" lengthAdjust="spacing" textLength="101.3223" x="46.89" y="190.292">VIEW - React</text></g><!--cluster CONTROLLER - FastAPI--><g class="cluster" data-qualified-name="CONTROLLER - FastAPI" data-source-line="44" id="ent0007"><path d="M822.39,206.2969 L1003.599,206.2969 A3.75,3.75 0 0 1 1006.099,208.7969 L1013.099,228.5938 L1312.39,228.5938 A2.5,2.5 0 0 1 1314.89,231.0938 L1314.89,499.7969 A2.5,2.5 0 0 1 1312.39,502.2969 L822.39,502.2969 A2.5,2.5 0 0 1 819.89,499.7969 L819.89,208.7969 A2.5,2.5 0 0 1 822.39,206.2969" fill="#FFF3E0" style="stroke:#000000;stroke-width:1.5;"/><line style="stroke:#000000;stroke-width:1.5;" x1="819.89" x2="1013.099" y1="228.5938" y2="228.5938"/><text fill="#000000" font-family="sans-serif" font-size="14" font-weight="bold" lengthAdjust="spacing" textLength="180.209" x="823.89" y="221.292">CONTROLLER - FastAPI</text></g><!--cluster SCHEMAS - Pydantic--><g class="cluster" data-qualified-name="SCHEMAS - Pydantic" data-source-line="60" id="ent0010"><path d="M1510.89,43.2969 L1672.5482,43.2969 A3.75,3.75 0 0 1 1675.0482,45.7969 L1682.0482,65.5938 L1727.89,65.5938 A2.5,2.5 0 0 1 1730.39,68.0938 L1730.39,319.7969 A2.5,2.5 0 0 1 1727.89,322.2969 L1510.89,322.2969 A2.5,2.5 0 0 1 1508.39,319.7969 L1508.39,45.7969 A2.5,2.5 0 0 1 1510.89,43.2969" fill="#F3E5F5" style="stroke:#000000;stroke-width:1.5;"/><line style="stroke:#000000;stroke-width:1.5;" x1="1508.39" x2="1682.0482" y1="65.5938" y2="65.5938"/><text fill="#000000" font-family="sans-serif" font-size="14" font-weight="bold" lengthAdjust="spacing" textLength="160.6582" x="1512.39" y="58.292">SCHEMAS - Pydantic</text></g><!--cluster SERVICE - R?gles m?tier--><g class="cluster" data-qualified-name="SERVICE - R.gles m.tier" data-source-line="75" id="ent0013"><path d="M1390.39,346.2969 L1583.0287,346.2969 A3.75,3.75 0 0 1 1585.5287,348.7969 L1592.5287,368.5938 L2240.39,368.5938 A2.5,2.5 0 0 1 2242.89,371.0938 L2242.89,672.7969 A2.5,2.5 0 0 1 2240.39,675.2969 L1390.39,675.2969 A2.5,2.5 0 0 1 1387.89,672.7969 L1387.89,348.7969 A2.5,2.5 0 0 1 1390.39,346.2969" fill="#E8F5E9" style="stroke:#000000;stroke-width:1.5;"/><line style="stroke:#000000;stroke-width:1.5;" x1="1387.89" x2="1592.5287" y1="368.5938" y2="368.5938"/><text fill="#000000" font-family="sans-serif" font-size="14" font-weight="bold" lengthAdjust="spacing" textLength="191.6387" x="1391.89" y="361.292">SERVICE - R&#232;gles m&#233;tier</text></g><!--cluster MODEL - SQLAlchemy--><g class="cluster" data-qualified-name="MODEL - SQLAlchemy" data-source-line="101" id="ent0017"><path d="M1933.39,699.2969 L2103.9007,699.2969 A3.75,3.75 0 0 1 2106.4007,701.7969 L2113.4007,721.5938 L2457.39,721.5938 A2.5,2.5 0 0 1 2459.89,724.0938 L2459.89,925.7969 A2.5,2.5 0 0 1 2457.39,928.2969 L1933.39,928.2969 A2.5,2.5 0 0 1 1930.89,925.7969 L1930.89,701.7969 A2.5,2.5 0 0 1 1933.39,699.2969" fill="#FFEBEE" style="stroke:#000000;stroke-width:1.5;"/><line style="stroke:#000000;stroke-width:1.5;" x1="1930.89" x2="2113.4007" y1="721.5938" y2="721.5938"/><text fill="#000000" font-family="sans-serif" font-size="14" font-weight="bold" lengthAdjust="spacing" textLength="169.5107" x="1934.89" y="714.292">MODEL - SQLAlchemy</text></g><!--class LoginPage--><g class="entity" data-qualified-name="VIEW - React.LoginPage" data-source-line="11" id="ent0003"><rect fill="#F1F1F1" height="145.7813" rx="2.5" ry="2.5" style="stroke:#181818;stroke-width:0.5;" width="290.6123" x="58.89" y="210.2969"/><ellipse cx="149.9515" cy="226.2969" fill="#ADD1B2" rx="11" ry="11" style="stroke:#181818;stroke-width:1;"/><path d="M152.9203,231.9375 Q152.3421,232.2344 151.7015,232.375 Q151.0609,232.5313 150.3578,232.5313 Q147.8578,232.5313 146.5296,230.8906 Q145.2171,229.2344 145.2171,226.1094 Q145.2171,222.9844 146.5296,221.3281 Q147.8578,219.6719 150.3578,219.6719 Q151.0609,219.6719 151.7015,219.8281 Q152.3578,219.9844 152.9203,220.2813 L152.9203,223 Q152.2953,222.4219 151.7015,222.1563 Q151.1078,221.875 150.4828,221.875 Q149.139,221.875 148.4515,222.9531 Q147.764,224.0156 147.764,226.1094 Q147.764,228.2031 148.4515,229.2813 Q149.139,230.3438 150.4828,230.3438 Q151.1078,230.3438 151.7015,230.0781 Q152.2953,229.7969 152.9203,229.2188 L152.9203,231.9375 Z " fill="#000000"/><text fill="#000000" font-family="sans-serif" font-size="14" lengthAdjust="spacing" textLength="99.9893" x="170.4515" y="231.1436">login_page.jsx</text><line style="stroke:#181818;stroke-width:0.5;" x1="59.89" x2="348.5023" y1="242.2969" y2="242.2969"/><text fill="#000000" font-family="sans-serif" font-size="14" lengthAdjust="spacing" textLength="147.7725" x="64.89" y="259.292">-registration_number</text><text fill="#000000" font-family="sans-serif" font-size="14" lengthAdjust="spacing" textLength="71.7637" x="64.89" y="275.5889">-password</text><text fill="#000000" font-family="sans-serif" font-size="14" lengthAdjust="spacing" textLength="109.416" x="64.89" y="291.8857">-error_message</text><line style="stroke:#181818;stroke-width:0.5;" x1="59.89" x2="348.5023" y1="299.1875" y2="299.1875"/><text fill="#000000" font-family="sans-serif" font-size="14" lengthAdjust="spacing" textLength="125.4395" x="64.89" y="316.1826">+handle_submit()</text><text fill="#000000" font-family="sans-serif" font-size="14" lengthAdjust="spacing" textLength="278.6123" x="64.89" y="332.4795">+handle_registration_number_change()</text><text fill="#000000" font-family="sans-serif" font-size="14" lengthAdjust="spacing" textLength="202.6035" x="64.89" y="348.7764">+handle_password_change()</text></g><!--class AccountsPage--><g class="entity" data-qualified-name="VIEW - React.AccountsPage" data-source-line="20" id="ent0004"><rect fill="#F1F1F1" height="162.0781" rx="2.5" ry="2.5" style="stroke:#181818;stroke-width:0.5;" width="203.8369" x="102.39" y="391.2969"/><ellipse cx="136.6877" cy="407.2969" fill="#ADD1B2" rx="11" ry="11" style="stroke:#181818;stroke-width:1;"/><path d="M139.6565,412.9375 Q139.0783,413.2344 138.4377,413.375 Q137.7971,413.5313 137.094,413.5313 Q134.594,413.5313 133.2658,411.8906 Q131.9533,410.2344 131.9533,407.1094 Q131.9533,403.9844 133.2658,402.3281 Q134.594,400.6719 137.094,400.6719 Q137.7971,400.6719 138.4377,400.8281 Q139.094,400.9844 139.6565,401.2813 L139.6565,404 Q139.0315,403.4219 138.4377,403.1563 Q137.844,402.875 137.219,402.875 Q135.8752,402.875 135.1877,403.9531 Q134.5002,405.0156 134.5002,407.1094 Q134.5002,409.2031 135.1877,410.2813 Q135.8752,411.3438 137.219,411.3438 Q137.844,411.3438 138.4377,411.0781 Q139.0315,410.7969 139.6565,410.2188 L139.6565,412.9375 Z " fill="#000000"/><text fill="#000000" font-family="sans-serif" font-size="14" lengthAdjust="spacing" textLength="128.9531" x="154.9761" y="412.1436">accounts_page.jsx</text><line style="stroke:#181818;stroke-width:0.5;" x1="103.39" x2="305.2269" y1="423.2969" y2="423.2969"/><text fill="#000000" font-family="sans-serif" font-size="14" lengthAdjust="spacing" textLength="68.1201" x="108.39" y="440.292">-accounts</text><text fill="#000000" font-family="sans-serif" font-size="14" lengthAdjust="spacing" textLength="56.6221" x="108.39" y="456.5889">-loading</text><text fill="#000000" font-family="sans-serif" font-size="14" lengthAdjust="spacing" textLength="109.416" x="108.39" y="472.8857">-error_message</text><line style="stroke:#181818;stroke-width:0.5;" x1="103.39" x2="305.2269" y1="480.1875" y2="480.1875"/><text fill="#000000" font-family="sans-serif" font-size="14" lengthAdjust="spacing" textLength="122.6436" x="108.39" y="497.1826">+load_accounts()</text><text fill="#000000" font-family="sans-serif" font-size="14" lengthAdjust="spacing" textLength="184.8916" x="108.39" y="513.4795">+handle_create_account()</text><text fill="#000000" font-family="sans-serif" font-size="14" lengthAdjust="spacing" textLength="189.4717" x="108.39" y="529.7764">+handle_update_account()</text><text fill="#000000" font-family="sans-serif" font-size="14" lengthAdjust="spacing" textLength="191.8369" x="108.39" y="546.0732">+handle_archive_account()</text></g><!--class FrontAuthService--><g class="entity" data-qualified-name="VIEW - React.FrontAuthService" data-source-line="30" id="ent0005"><rect fill="#F1F1F1" height="96.8906" rx="2.5" ry="2.5" style="stroke:#181818;stroke-width:0.5;" width="153.2373" x="497.39" y="237.7969"/><ellipse cx="519.8783" cy="253.7969" fill="#ADD1B2" rx="11" ry="11" style="stroke:#181818;stroke-width:1;"/><path d="M522.847,259.4375 Q522.2689,259.7344 521.6283,259.875 Q520.9877,260.0313 520.2845,260.0313 Q517.7845,260.0313 516.4564,258.3906 Q515.1439,256.7344 515.1439,253.6094 Q515.1439,250.4844 516.4564,248.8281 Q517.7845,247.1719 520.2845,247.1719 Q520.9877,247.1719 521.6283,247.3281 Q522.2845,247.4844 522.847,247.7813 L522.847,250.5 Q522.222,249.9219 521.6283,249.6563 Q521.0345,249.375 520.4095,249.375 Q519.0658,249.375 518.3783,250.4531 Q517.6908,251.5156 517.6908,253.6094 Q517.6908,255.7031 518.3783,256.7813 Q519.0658,257.8438 520.4095,257.8438 Q521.0345,257.8438 521.6283,257.5781 Q522.222,257.2969 522.847,256.7188 L522.847,259.4375 Z " fill="#000000"/><text fill="#000000" font-family="sans-serif" font-size="14" lengthAdjust="spacing" textLength="104.5967" x="535.5423" y="258.6436">auth_service.js</text><line style="stroke:#181818;stroke-width:0.5;" x1="498.39" x2="649.6273" y1="269.7969" y2="269.7969"/><line style="stroke:#181818;stroke-width:0.5;" x1="498.39" x2="649.6273" y1="277.7969" y2="277.7969"/><text fill="#000000" font-family="sans-serif" font-size="14" lengthAdjust="spacing" textLength="134.3398" x="503.39" y="294.792">+login(credentials)</text><text fill="#000000" font-family="sans-serif" font-size="14" lengthAdjust="spacing" textLength="66.9238" x="503.39" y="311.0889">+logout()</text><text fill="#000000" font-family="sans-serif" font-size="14" lengthAdjust="spacing" textLength="141.2373" x="503.39" y="327.3857">+get_current_user()</text></g><!--class FrontAccountService--><g class="entity" data-qualified-name="VIEW - React.FrontAccountService" data-source-line="36" id="ent0006"><rect fill="#F1F1F1" height="113.1875" rx="2.5" ry="2.5" style="stroke:#181818;stroke-width:0.5;" width="325.5166" x="410.89" y="390.7969"/><ellipse cx="505.12" cy="406.7969" fill="#ADD1B2" rx="11" ry="11" style="stroke:#181818;stroke-width:1;"/><path d="M508.0887,412.4375 Q507.5106,412.7344 506.87,412.875 Q506.2294,413.0313 505.5262,413.0313 Q503.0262,413.0313 501.6981,411.3906 Q500.3856,409.7344 500.3856,406.6094 Q500.3856,403.4844 501.6981,401.8281 Q503.0262,400.1719 505.5262,400.1719 Q506.2294,400.1719 506.87,400.3281 Q507.5262,400.4844 508.0887,400.7813 L508.0887,403.5 Q507.4637,402.9219 506.87,402.6563 Q506.2762,402.375 505.6512,402.375 Q504.3075,402.375 503.62,403.4531 Q502.9325,404.5156 502.9325,406.6094 Q502.9325,408.7031 503.62,409.7813 Q504.3075,410.8438 505.6512,410.8438 Q506.2762,410.8438 506.87,410.5781 Q507.4637,410.2969 508.0887,409.7188 L508.0887,412.4375 Z " fill="#000000"/><text fill="#000000" font-family="sans-serif" font-size="14" lengthAdjust="spacing" textLength="128.5566" x="525.62" y="411.6436">account_service.js</text><line style="stroke:#181818;stroke-width:0.5;" x1="411.89" x2="735.4066" y1="422.7969" y2="422.7969"/><line style="stroke:#181818;stroke-width:0.5;" x1="411.89" x2="735.4066" y1="430.7969" y2="430.7969"/><text fill="#000000" font-family="sans-serif" font-size="14" lengthAdjust="spacing" textLength="115.7119" x="416.89" y="447.792">+get_accounts()</text><text fill="#000000" font-family="sans-serif" font-size="14" lengthAdjust="spacing" textLength="224.4854" x="416.89" y="464.0889">+create_account(account_data)</text><text fill="#000000" font-family="sans-serif" font-size="14" lengthAdjust="spacing" textLength="313.5166" x="416.89" y="480.3857">+update_account(account_id, account_data)</text><text fill="#000000" font-family="sans-serif" font-size="14" lengthAdjust="spacing" textLength="212.6729" x="416.89" y="496.6826">+archive_account(account_id)</text></g><!--class AuthRoutes--><g class="entity" data-qualified-name="CONTROLLER - FastAPI.AuthRoutes" data-source-line="46" id="ent0008"><rect fill="#F1F1F1" height="96.8906" rx="2.5" ry="2.5" style="stroke:#181818;stroke-width:0.5;" width="292.3076" x="921.39" y="240.7969"/><ellipse cx="1011.9217" cy="256.7969" fill="#ADD1B2" rx="11" ry="11" style="stroke:#181818;stroke-width:1;"/><path d="M1014.8905,262.4375 Q1014.3124,262.7344 1013.6717,262.875 Q1013.0311,263.0313 1012.328,263.0313 Q1009.828,263.0313 1008.4999,261.3906 Q1007.1874,259.7344 1007.1874,256.6094 Q1007.1874,253.4844 1008.4999,251.8281 Q1009.828,250.1719 1012.328,250.1719 Q1013.0311,250.1719 1013.6717,250.3281 Q1014.328,250.4844 1014.8905,250.7813 L1014.8905,253.5 Q1014.2655,252.9219 1013.6717,252.6563 Q1013.078,252.375 1012.453,252.375 Q1011.1092,252.375 1010.4217,253.4531 Q1009.7342,254.5156 1009.7342,256.6094 Q1009.7342,258.7031 1010.4217,259.7813 Q1011.1092,260.8438 1012.453,260.8438 Q1013.078,260.8438 1013.6717,260.5781 Q1014.2655,260.2969 1014.8905,259.7188 L1014.8905,262.4375 Z " fill="#000000"/><text fill="#000000" font-family="sans-serif" font-size="14" lengthAdjust="spacing" textLength="102.7441" x="1032.4217" y="261.6436">routes/auth.py</text><line style="stroke:#181818;stroke-width:0.5;" x1="922.39" x2="1212.6976" y1="272.7969" y2="272.7969"/><line style="stroke:#181818;stroke-width:0.5;" x1="922.39" x2="1212.6976" y1="280.7969" y2="280.7969"/><text fill="#000000" font-family="sans-serif" font-size="14" lengthAdjust="spacing" textLength="156.0713" x="927.39" y="297.792">+login(login_data, db)</text><text fill="#000000" font-family="sans-serif" font-size="14" lengthAdjust="spacing" textLength="180.7559" x="927.39" y="314.0889">+logout(current_account)</text><text fill="#000000" font-family="sans-serif" font-size="14" lengthAdjust="spacing" textLength="280.3076" x="927.39" y="330.3857">+get_current_account(current_account)</text></g><!--class AccountRoutes--><g class="entity" data-qualified-name="CONTROLLER - FastAPI.AccountRoutes" data-source-line="52" id="ent0009"><rect fill="#F1F1F1" height="113.1875" rx="2.5" ry="2.5" style="stroke:#181818;stroke-width:0.5;" width="463.0146" x="835.89" y="372.7969"/><ellipse cx="996.1483" cy="388.7969" fill="#ADD1B2" rx="11" ry="11" style="stroke:#181818;stroke-width:1;"/><path d="M999.1171,394.4375 Q998.5389,394.7344 997.8983,394.875 Q997.2577,395.0313 996.5546,395.0313 Q994.0546,395.0313 992.7264,393.3906 Q991.4139,391.7344 991.4139,388.6094 Q991.4139,385.4844 992.7264,383.8281 Q994.0546,382.1719 996.5546,382.1719 Q997.2577,382.1719 997.8983,382.3281 Q998.5546,382.4844 999.1171,382.7813 L999.1171,385.5 Q998.4921,384.9219 997.8983,384.6563 Q997.3046,384.375 996.6796,384.375 Q995.3358,384.375 994.6483,385.4531 Q993.9608,386.5156 993.9608,388.6094 Q993.9608,390.7031 994.6483,391.7813 Q995.3358,392.8438 996.6796,392.8438 Q997.3046,392.8438 997.8983,392.5781 Q998.4921,392.2969 999.1171,391.7188 L999.1171,394.4375 Z " fill="#000000"/><text fill="#000000" font-family="sans-serif" font-size="14" lengthAdjust="spacing" textLength="133.998" x="1016.6483" y="393.6436">routes/accounts.py</text><line style="stroke:#181818;stroke-width:0.5;" x1="836.89" x2="1297.9046" y1="404.7969" y2="404.7969"/><line style="stroke:#181818;stroke-width:0.5;" x1="836.89" x2="1297.9046" y1="412.7969" y2="412.7969"/><text fill="#000000" font-family="sans-serif" font-size="14" lengthAdjust="spacing" textLength="241.8828" x="841.89" y="429.792">+list_accounts(db, current_admin)</text><text fill="#000000" font-family="sans-serif" font-size="14" lengthAdjust="spacing" textLength="361.9834" x="841.89" y="446.0889">+create_account(account_data, db, current_admin)</text><text fill="#000000" font-family="sans-serif" font-size="14" lengthAdjust="spacing" textLength="451.0146" x="841.89" y="462.3857">+update_account(account_id, account_data, db, current_admin)</text><text fill="#000000" font-family="sans-serif" font-size="14" lengthAdjust="spacing" textLength="350.1709" x="841.89" y="478.6826">+archive_account(account_id, db, current_admin)</text></g><!--class AuthSchemas--><g class="entity" data-qualified-name="SCHEMAS - Pydantic.AuthSchemas" data-source-line="62" id="ent0011"><rect fill="#F1F1F1" height="96.8906" rx="2.5" ry="2.5" style="stroke:#181818;stroke-width:0.5;" width="189.7754" x="1524.39" y="77.7969"/><ellipse cx="1556.3252" cy="93.7969" fill="#ADD1B2" rx="11" ry="11" style="stroke:#181818;stroke-width:1;"/><path d="M1559.294,99.4375 Q1558.7158,99.7344 1558.0752,99.875 Q1557.4346,100.0313 1556.7315,100.0313 Q1554.2315,100.0313 1552.9033,98.3906 Q1551.5908,96.7344 1551.5908,93.6094 Q1551.5908,90.4844 1552.9033,88.8281 Q1554.2315,87.1719 1556.7315,87.1719 Q1557.4346,87.1719 1558.0752,87.3281 Q1558.7315,87.4844 1559.294,87.7813 L1559.294,90.5 Q1558.669,89.9219 1558.0752,89.6563 Q1557.4815,89.375 1556.8565,89.375 Q1555.5127,89.375 1554.8252,90.4531 Q1554.1377,91.5156 1554.1377,93.6094 Q1554.1377,95.7031 1554.8252,96.7813 Q1555.5127,97.8438 1556.8565,97.8438 Q1557.4815,97.8438 1558.0752,97.5781 Q1558.669,97.2969 1559.294,96.7188 L1559.294,99.4375 Z " fill="#000000"/><text fill="#000000" font-family="sans-serif" font-size="14" lengthAdjust="spacing" textLength="120.1416" x="1574.0886" y="98.6436">schemas/auth.py</text><line style="stroke:#181818;stroke-width:0.5;" x1="1525.39" x2="1713.1654" y1="109.7969" y2="109.7969"/><text fill="#000000" font-family="sans-serif" font-size="14" lengthAdjust="spacing" textLength="95.5117" x="1530.39" y="126.792">LoginRequest</text><text fill="#000000" font-family="sans-serif" font-size="14" lengthAdjust="spacing" textLength="105.8818" x="1530.39" y="143.0889">LoginResponse</text><text fill="#000000" font-family="sans-serif" font-size="14" lengthAdjust="spacing" textLength="177.7754" x="1530.39" y="159.3857">CurrentAccountResponse</text><line style="stroke:#181818;stroke-width:0.5;" x1="1525.39" x2="1713.1654" y1="166.6875" y2="166.6875"/></g><!--class AccountSchemas--><g class="entity" data-qualified-name="SCHEMAS - Pydantic.AccountSchemas" data-source-line="68" id="ent0012"><rect fill="#F1F1F1" height="96.8906" rx="2.5" ry="2.5" style="stroke:#181818;stroke-width:0.5;" width="176.1016" x="1531.39" y="209.7969"/><ellipse cx="1546.39" cy="225.7969" fill="#ADD1B2" rx="11" ry="11" style="stroke:#181818;stroke-width:1;"/><path d="M1549.3587,231.4375 Q1548.7806,231.7344 1548.14,231.875 Q1547.4994,232.0313 1546.7962,232.0313 Q1544.2962,232.0313 1542.9681,230.3906 Q1541.6556,228.7344 1541.6556,225.6094 Q1541.6556,222.4844 1542.9681,220.8281 Q1544.2962,219.1719 1546.7962,219.1719 Q1547.4994,219.1719 1548.14,219.3281 Q1548.7962,219.4844 1549.3587,219.7813 L1549.3587,222.5 Q1548.7337,221.9219 1548.14,221.6563 Q1547.5462,221.375 1546.9212,221.375 Q1545.5775,221.375 1544.89,222.4531 Q1544.2025,223.5156 1544.2025,225.6094 Q1544.2025,227.7031 1544.89,228.7813 Q1545.5775,229.8438 1546.9212,229.8438 Q1547.5462,229.8438 1548.14,229.5781 Q1548.7337,229.2969 1549.3587,228.7188 L1549.3587,231.4375 Z " fill="#000000"/><text fill="#000000" font-family="sans-serif" font-size="14" lengthAdjust="spacing" textLength="144.1016" x="1560.39" y="230.6436">schemas/account.py</text><line style="stroke:#181818;stroke-width:0.5;" x1="1532.39" x2="1706.4916" y1="241.7969" y2="241.7969"/><text fill="#000000" font-family="sans-serif" font-size="14" lengthAdjust="spacing" textLength="103.5986" x="1537.39" y="258.792">AccountCreate</text><text fill="#000000" font-family="sans-serif" font-size="14" lengthAdjust="spacing" textLength="107.4746" x="1537.39" y="275.0889">AccountUpdate</text><text fill="#000000" font-family="sans-serif" font-size="14" lengthAdjust="spacing" textLength="124.6396" x="1537.39" y="291.3857">AccountResponse</text><line style="stroke:#181818;stroke-width:0.5;" x1="1532.39" x2="1706.4916" y1="298.6875" y2="298.6875"/></g><!--class AuthService--><g class="entity" data-qualified-name="SERVICE - R.gles m.tier.AuthService" data-source-line="77" id="ent0014"><rect fill="#F1F1F1" height="129.4844" rx="2.5" ry="2.5" style="stroke:#181818;stroke-width:0.5;" width="431.4941" x="1403.89" y="381.7969"/><ellipse cx="1529.015" cy="397.7969" fill="#ADD1B2" rx="11" ry="11" style="stroke:#181818;stroke-width:1;"/><path d="M1531.9837,403.4375 Q1531.4056,403.7344 1530.765,403.875 Q1530.1244,404.0313 1529.4212,404.0313 Q1526.9212,404.0313 1525.5931,402.3906 Q1524.2806,400.7344 1524.2806,397.6094 Q1524.2806,394.4844 1525.5931,392.8281 Q1526.9212,391.1719 1529.4212,391.1719 Q1530.1244,391.1719 1530.765,391.3281 Q1531.4212,391.4844 1531.9837,391.7813 L1531.9837,394.5 Q1531.3587,393.9219 1530.765,393.6563 Q1530.1712,393.375 1529.5462,393.375 Q1528.2025,393.375 1527.515,394.4531 Q1526.8275,395.5156 1526.8275,397.6094 Q1526.8275,399.7031 1527.515,400.7813 Q1528.2025,401.8438 1529.5462,401.8438 Q1530.1712,401.8438 1530.765,401.5781 Q1531.3587,401.2969 1531.9837,400.7188 L1531.9837,403.4375 Z " fill="#000000"/><text fill="#000000" font-family="sans-serif" font-size="14" lengthAdjust="spacing" textLength="172.7441" x="1549.515" y="402.6436">services/auth_service.py</text><line style="stroke:#181818;stroke-width:0.5;" x1="1404.89" x2="1834.3841" y1="413.7969" y2="413.7969"/><line style="stroke:#181818;stroke-width:0.5;" x1="1404.89" x2="1834.3841" y1="421.7969" y2="421.7969"/><text fill="#000000" font-family="sans-serif" font-size="14" lengthAdjust="spacing" textLength="419.4941" x="1409.89" y="438.792">+authenticate_account(db, registration_number, password)</text><text fill="#000000" font-family="sans-serif" font-size="14" lengthAdjust="spacing" textLength="268.3721" x="1409.89" y="455.0889">+register_failed_attempt(db, account)</text><text fill="#000000" font-family="sans-serif" font-size="14" lengthAdjust="spacing" textLength="257.1338" x="1409.89" y="471.3857">+reset_failed_attempts(db, account)</text><text fill="#000000" font-family="sans-serif" font-size="14" lengthAdjust="spacing" textLength="182" x="1409.89" y="487.6826">+create_session(account)</text><text fill="#000000" font-family="sans-serif" font-size="14" lengthAdjust="spacing" textLength="173.3115" x="1409.89" y="503.9795">+close_session(account)</text></g><!--class AccountService--><g class="entity" data-qualified-name="SERVICE - R.gles m.tier.AccountService" data-source-line="85" id="ent0015"><rect fill="#F1F1F1" height="113.1875" rx="2.5" ry="2.5" style="stroke:#181818;stroke-width:0.5;" width="352.1904" x="1443.39" y="545.7969"/><ellipse cx="1516.8832" cy="561.7969" fill="#ADD1B2" rx="11" ry="11" style="stroke:#181818;stroke-width:1;"/><path d="M1519.8519,567.4375 Q1519.2738,567.7344 1518.6332,567.875 Q1517.9925,568.0313 1517.2894,568.0313 Q1514.7894,568.0313 1513.4613,566.3906 Q1512.1488,564.7344 1512.1488,561.6094 Q1512.1488,558.4844 1513.4613,556.8281 Q1514.7894,555.1719 1517.2894,555.1719 Q1517.9925,555.1719 1518.6332,555.3281 Q1519.2894,555.4844 1519.8519,555.7813 L1519.8519,558.5 Q1519.2269,557.9219 1518.6332,557.6563 Q1518.0394,557.375 1517.4144,557.375 Q1516.0707,557.375 1515.3832,558.4531 Q1514.6957,559.5156 1514.6957,561.6094 Q1514.6957,563.7031 1515.3832,564.7813 Q1516.0707,565.8438 1517.4144,565.8438 Q1518.0394,565.8438 1518.6332,565.5781 Q1519.2269,565.2969 1519.8519,564.7188 L1519.8519,567.4375 Z " fill="#000000"/><text fill="#000000" font-family="sans-serif" font-size="14" lengthAdjust="spacing" textLength="196.7041" x="1537.3832" y="566.6436">services/account_service.py</text><line style="stroke:#181818;stroke-width:0.5;" x1="1444.39" x2="1794.5804" y1="577.7969" y2="577.7969"/><line style="stroke:#181818;stroke-width:0.5;" x1="1444.39" x2="1794.5804" y1="585.7969" y2="585.7969"/><text fill="#000000" font-family="sans-serif" font-size="14" lengthAdjust="spacing" textLength="133.4854" x="1449.39" y="602.792">+get_accounts(db)</text><text fill="#000000" font-family="sans-serif" font-size="14" lengthAdjust="spacing" textLength="251.1592" x="1449.39" y="619.0889">+create_account(db, account_data)</text><text fill="#000000" font-family="sans-serif" font-size="14" lengthAdjust="spacing" textLength="340.1904" x="1449.39" y="635.3857">+update_account(db, account_id, account_data)</text><text fill="#000000" font-family="sans-serif" font-size="14" lengthAdjust="spacing" textLength="239.3467" x="1449.39" y="651.6826">+archive_account(db, account_id)</text></g><!--class Security--><g class="entity" data-qualified-name="SERVICE - R.gles m.tier.Security" data-source-line="92" id="ent0016"><rect fill="#F1F1F1" height="129.4844" rx="2.5" ry="2.5" style="stroke:#181818;stroke-width:0.5;" width="331.0674" x="1895.89" y="381.7969"/><ellipse cx="2000.7396" cy="397.7969" fill="#ADD1B2" rx="11" ry="11" style="stroke:#181818;stroke-width:1;"/><path d="M2003.7084,403.4375 Q2003.1302,403.7344 2002.4896,403.875 Q2001.849,404.0313 2001.1459,404.0313 Q1998.6459,404.0313 1997.3177,402.3906 Q1996.0052,400.7344 1996.0052,397.6094 Q1996.0052,394.4844 1997.3177,392.8281 Q1998.6459,391.1719 2001.1459,391.1719 Q2001.849,391.1719 2002.4896,391.3281 Q2003.1459,391.4844 2003.7084,391.7813 L2003.7084,394.5 Q2003.0834,393.9219 2002.4896,393.6563 Q2001.8959,393.375 2001.2709,393.375 Q1999.9271,393.375 1999.2396,394.4531 Q1998.5521,395.5156 1998.5521,397.6094 Q1998.5521,399.7031 1999.2396,400.7813 Q1999.9271,401.8438 2001.2709,401.8438 Q2001.8959,401.8438 2002.4896,401.5781 Q2003.0834,401.2969 2003.7084,400.7188 L2003.7084,403.4375 Z " fill="#000000"/><text fill="#000000" font-family="sans-serif" font-size="14" lengthAdjust="spacing" textLength="112.8682" x="2021.2396" y="402.6436">core/security.py</text><line style="stroke:#181818;stroke-width:0.5;" x1="1896.89" x2="2225.9574" y1="413.7969" y2="413.7969"/><line style="stroke:#181818;stroke-width:0.5;" x1="1896.89" x2="2225.9574" y1="421.7969" y2="421.7969"/><text fill="#000000" font-family="sans-serif" font-size="14" lengthAdjust="spacing" textLength="196.6973" x="1901.89" y="438.792">+hash_password(password)</text><text fill="#000000" font-family="sans-serif" font-size="14" lengthAdjust="spacing" textLength="319.0674" x="1901.89" y="455.0889">+verify_password(password, password_hash)</text><text fill="#000000" font-family="sans-serif" font-size="14" lengthAdjust="spacing" textLength="224" x="1901.89" y="471.3857">+create_access_token(account)</text><text fill="#000000" font-family="sans-serif" font-size="14" lengthAdjust="spacing" textLength="206.124" x="1901.89" y="487.6826">+get_current_account(token)</text><text fill="#000000" font-family="sans-serif" font-size="14" lengthAdjust="spacing" textLength="264.6396" x="1901.89" y="503.9795">+require_role(account, required_role)</text></g><!--class Account--><g class="entity" data-qualified-name="MODEL - SQLAlchemy.Account" data-source-line="103" id="ent0018"><rect fill="#F1F1F1" height="178.375" rx="2.5" ry="2.5" style="stroke:#181818;stroke-width:0.5;" width="228.9111" x="1946.89" y="734.2969"/><ellipse cx="1990.65" cy="750.2969" fill="#ADD1B2" rx="11" ry="11" style="stroke:#181818;stroke-width:1;"/><path d="M1993.6188,755.9375 Q1993.0406,756.2344 1992.4,756.375 Q1991.7594,756.5313 1991.0563,756.5313 Q1988.5563,756.5313 1987.2281,754.8906 Q1985.9156,753.2344 1985.9156,750.1094 Q1985.9156,746.9844 1987.2281,745.3281 Q1988.5563,743.6719 1991.0563,743.6719 Q1991.7594,743.6719 1992.4,743.8281 Q1993.0563,743.9844 1993.6188,744.2813 L1993.6188,747 Q1992.9938,746.4219 1992.4,746.1563 Q1991.8063,745.875 1991.1813,745.875 Q1989.8375,745.875 1989.15,746.9531 Q1988.4625,748.0156 1988.4625,750.1094 Q1988.4625,752.2031 1989.15,753.2813 Q1989.8375,754.3438 1991.1813,754.3438 Q1991.8063,754.3438 1992.4,754.0781 Q1992.9938,753.7969 1993.6188,753.2188 L1993.6188,755.9375 Z " fill="#000000"/><text fill="#000000" font-family="sans-serif" font-size="14" lengthAdjust="spacing" textLength="133" x="2011.0411" y="755.1436">models/account.py</text><line style="stroke:#181818;stroke-width:0.5;" x1="1947.89" x2="2174.8011" y1="766.2969" y2="766.2969"/><text fill="#000000" font-family="sans-serif" font-size="14" lengthAdjust="spacing" textLength="64.3604" x="1952.89" y="783.292">+UUID id</text><text fill="#000000" font-family="sans-serif" font-size="14" lengthAdjust="spacing" textLength="200.6826" x="1952.89" y="799.5889">+String registration_number</text><text fill="#000000" font-family="sans-serif" font-size="14" lengthAdjust="spacing" textLength="158.6143" x="1952.89" y="815.8857">-String password_hash</text><text fill="#000000" font-family="sans-serif" font-size="14" lengthAdjust="spacing" textLength="84.7861" x="1952.89" y="832.1826">+String role</text><text fill="#000000" font-family="sans-serif" font-size="14" lengthAdjust="spacing" textLength="133.6084" x="1952.89" y="848.4795">+Boolean is_active</text><text fill="#000000" font-family="sans-serif" font-size="14" lengthAdjust="spacing" textLength="216.9111" x="1952.89" y="864.7764">+Integer failed_login_attempts</text><text fill="#000000" font-family="sans-serif" font-size="14" lengthAdjust="spacing" textLength="168.1094" x="1952.89" y="881.0732">+DateTime locked_until</text><text fill="#000000" font-family="sans-serif" font-size="14" lengthAdjust="spacing" textLength="165.9834" x="1952.89" y="897.3701">+DateTime archived_at</text><line style="stroke:#181818;stroke-width:0.5;" x1="1947.89" x2="2174.8011" y1="904.6719" y2="904.6719"/></g><!--class Database--><g class="entity" data-qualified-name="MODEL - SQLAlchemy.Database" data-source-line="114" id="ent0019"><rect fill="#F1F1F1" height="96.8906" rx="2.5" ry="2.5" style="stroke:#181818;stroke-width:0.5;" width="153.8779" x="2289.89" y="774.7969"/><ellipse cx="2304.89" cy="790.7969" fill="#ADD1B2" rx="11" ry="11" style="stroke:#181818;stroke-width:1;"/><path d="M2307.8588,796.4375 Q2307.2806,796.7344 2306.64,796.875 Q2305.9994,797.0313 2305.2963,797.0313 Q2302.7963,797.0313 2301.4681,795.3906 Q2300.1556,793.7344 2300.1556,790.6094 Q2300.1556,787.4844 2301.4681,785.8281 Q2302.7963,784.1719 2305.2963,784.1719 Q2305.9994,784.1719 2306.64,784.3281 Q2307.2963,784.4844 2307.8588,784.7813 L2307.8588,787.5 Q2307.2338,786.9219 2306.64,786.6563 Q2306.0463,786.375 2305.4213,786.375 Q2304.0775,786.375 2303.39,787.4531 Q2302.7025,788.5156 2302.7025,790.6094 Q2302.7025,792.7031 2303.39,793.7813 Q2304.0775,794.8438 2305.4213,794.8438 Q2306.0463,794.8438 2306.64,794.5781 Q2307.2338,794.2969 2307.8588,793.7188 L2307.8588,796.4375 Z " fill="#000000"/><text fill="#000000" font-family="sans-serif" font-size="14" lengthAdjust="spacing" textLength="121.8779" x="2318.89" y="795.6436">core/database.py</text><line style="stroke:#181818;stroke-width:0.5;" x1="2290.89" x2="2442.7679" y1="806.7969" y2="806.7969"/><text fill="#000000" font-family="sans-serif" font-size="14" lengthAdjust="spacing" textLength="59.4795" x="2295.89" y="823.792">+engine</text><text fill="#000000" font-family="sans-serif" font-size="14" lengthAdjust="spacing" textLength="119.8545" x="2295.89" y="840.0889">+session_factory</text><line style="stroke:#181818;stroke-width:0.5;" x1="2290.89" x2="2442.7679" y1="847.3906" y2="847.3906"/><text fill="#000000" font-family="sans-serif" font-size="14" lengthAdjust="spacing" textLength="70.417" x="2295.89" y="864.3857">+get_db()</text></g><!--entity PostgreSQL--><g class="entity" data-qualified-name="PostgreSQL" data-source-line="121" id="ent0020"><path d="M2506.89,802.2969 C2506.89,792.2969 2557.2665,792.2969 2557.2665,792.2969 C2557.2665,792.2969 2607.6429,792.2969 2607.6429,802.2969 L2607.6429,843.8906 C2607.6429,853.8906 2557.2665,853.8906 2557.2665,853.8906 C2557.2665,853.8906 2506.89,853.8906 2506.89,843.8906 L2506.89,802.2969" fill="#F1F1F1" style="stroke:#181818;stroke-width:0.5;"/><path d="M2506.89,802.2969 C2506.89,812.2969 2557.2665,812.2969 2557.2665,812.2969 C2557.2665,812.2969 2607.6429,812.2969 2607.6429,802.2969" fill="none" style="stroke:#181818;stroke-width:0.5;"/><text fill="#000000" font-family="sans-serif" font-size="14" lengthAdjust="spacing" textLength="80.7529" x="2516.89" y="829.292">PostgreSQL</text><text fill="#000000" font-family="sans-serif" font-size="14" lengthAdjust="spacing" textLength="63.0684" x="2516.89" y="845.5889">accounts</text></g><g class="entity" data-qualified-name="GMN35" data-source-line="145" id="ent0036"><path d="M106.89,44.2969 L106.89,84.5625 L301.5809,84.5625 L301.5809,54.2969 L291.5809,44.2969 L106.89,44.2969" fill="#FEFFDD" style="stroke:#181818;stroke-width:0.5;"/><path d="M291.5809,44.2969 L291.5809,54.2969 L301.5809,54.2969 L291.5809,44.2969" fill="#FEFFDD" style="stroke:#181818;stroke-width:1;"/><text fill="#000000" font-family="sans-serif" font-size="13" lengthAdjust="spacing" textLength="47.271" x="112.89" y="61.3638">US-001</text><text fill="#000000" font-family="sans-serif" font-size="13" lengthAdjust="spacing" textLength="173.6909" x="112.89" y="76.4966">Connexion et d&#233;connexion</text></g><g class="entity" data-qualified-name="GMN38" data-source-line="150" id="ent0039"><path d="M98.89,119.2969 L98.89,159.5625 L309.85,159.5625 L309.85,129.2969 L299.85,119.2969 L98.89,119.2969" fill="#FEFFDD" style="stroke:#181818;stroke-width:0.5;"/><path d="M299.85,119.2969 L299.85,129.2969 L309.85,129.2969 L299.85,119.2969" fill="#FEFFDD" style="stroke:#181818;stroke-width:1;"/><text fill="#000000" font-family="sans-serif" font-size="13" lengthAdjust="spacing" textLength="47.271" x="104.89" y="136.3638">US-002</text><text fill="#000000" font-family="sans-serif" font-size="13" lengthAdjust="spacing" textLength="189.96" x="104.89" y="151.4966">Gestion des comptes et r&#244;les</text></g><g class="entity" data-qualified-name="GMN41" data-source-line="155" id="ent0042"><path d="M1951.89,290.2969 L1951.89,330.5625 A0,0 0 0 0 1951.89,330.5625 L2057.39,330.5625 L2061.39,381.7469 L2065.39,330.5625 L2171.1527,330.5625 A0,0 0 0 0 2171.1527,330.5625 L2171.1527,300.2969 L2161.1527,290.2969 L1951.89,290.2969 A0,0 0 0 0 1951.89,290.2969" fill="#FEFFDD" style="stroke:#181818;stroke-width:0.5;"/><path d="M2161.1527,290.2969 L2161.1527,300.2969 L2171.1527,300.2969 L2161.1527,290.2969" fill="#FEFFDD" style="stroke:#181818;stroke-width:0.5;"/><text fill="#000000" font-family="sans-serif" font-size="13" lengthAdjust="spacing" textLength="47.271" x="1957.89" y="307.3638">US-025</text><text fill="#000000" font-family="sans-serif" font-size="13" lengthAdjust="spacing" textLength="198.2627" x="1957.89" y="322.4966">S&#233;curit&#233; des acc&#232;s et sessions</text></g><!--link LoginPage to FrontAuthService--><g class="link" data-entity-1="ent0003" data-entity-2="ent0005" data-link-type="dependency" data-source-line="123" id="lnk21"><path codeLine="123" d="M350.1,284.4769 C400.42,284.8869 448.8302,285.2888 491.2802,285.6288" fill="none" id="LoginPage-to-FrontAuthService" style="stroke:#181818;stroke-width:1;"/><polygon fill="#181818" points="497.28,285.6769,488.3123,281.6049,492.2802,285.6368,488.2483,289.6047,497.28,285.6769" style="stroke:#181818;stroke-width:1;"/></g><!--link AccountsPage to FrontAccountService--><g class="link" data-entity-1="ent0004" data-entity-2="ent0006" data-link-type="dependency" data-source-line="124" id="lnk22"><path codeLine="124" d="M306.78,465.3969 C338.97,463.2069 369.4238,461.1333 404.7738,458.7333" fill="none" id="AccountsPage-to-FrontAccountService" style="stroke:#181818;stroke-width:1;"/><polygon fill="#181818" points="410.76,458.3269,401.5097,454.9457,405.7715,458.6656,402.0516,462.9273,410.76,458.3269" style="stroke:#181818;stroke-width:1;"/></g><!--link FrontAuthService to AuthRoutes--><g class="link" data-entity-1="ent0005" data-entity-2="ent0008" data-link-type="dependency" data-source-line="126" id="lnk23"><path codeLine="126" d="M650.61,286.7569 C722.5,287.1969 826.4801,287.8304 915.2801,288.3704" fill="none" id="FrontAuthService-to-AuthRoutes" style="stroke:#181818;stroke-width:1;"/><polygon fill="#181818" points="921.28,288.4069,912.3045,284.3522,916.2801,288.3765,912.2558,292.3521,921.28,288.4069" style="stroke:#181818;stroke-width:1;"/><text fill="#000000" font-family="sans-serif" font-size="13" lengthAdjust="spacing" textLength="33.4966" x="769.89" y="284.3638">HTTP</text></g><!--link FrontAccountService to AccountRoutes--><g class="link" data-entity-1="ent0006" data-entity-2="ent0009" data-link-type="dependency" data-source-line="127" id="lnk24"><path codeLine="127" d="M737.18,441.3569 C768.78,440.1969 796.474,439.1865 829.784,437.9665" fill="none" id="FrontAccountService-to-AccountRoutes" style="stroke:#181818;stroke-width:1;"/><polygon fill="#181818" points="835.78,437.7469,826.6396,434.079,830.7834,437.9299,826.9324,442.0736,835.78,437.7469" style="stroke:#181818;stroke-width:1;"/><text fill="#000000" font-family="sans-serif" font-size="13" lengthAdjust="spacing" textLength="33.4966" x="769.89" y="436.3638">HTTP</text></g><!--link AuthRoutes to AuthSchemas--><g class="link" data-entity-1="ent0008" data-entity-2="ent0011" data-link-type="dependency" data-source-line="129" id="lnk25"><path codeLine="129" d="M1213.5,243.0569 C1265.83,226.6569 1325.41,208.3169 1379.89,192.2969 C1427.29,178.3569 1474.442,165.2076 1518.382,153.2076" fill="none" id="AuthRoutes-to-AuthSchemas" style="stroke:#181818;stroke-width:1;stroke-dasharray:7,7;"/><polygon fill="#181818" points="1524.17,151.6269,1514.4341,150.1393,1519.3466,152.9441,1516.5418,157.8566,1524.17,151.6269" style="stroke:#181818;stroke-width:1;"/><text fill="#000000" font-family="sans-serif" font-size="13" lengthAdjust="spacing" textLength="39.1333" x="1331.89" y="191.3638">valide</text></g><!--link AccountRoutes to AccountSchemas--><g class="link" data-entity-1="ent0009" data-entity-2="ent0012" data-link-type="dependency" data-source-line="130" id="lnk26"><path codeLine="130" d="M1265.54,372.6969 C1284.94,366.9069 1304.31,361.0469 1322.89,355.2969 C1393.3,333.5069 1466.94,309.2806 1525.67,289.6306" fill="none" id="AccountRoutes-to-AccountSchemas" style="stroke:#181818;stroke-width:1;stroke-dasharray:7,7;"/><polygon fill="#181818" points="1531.36,287.7269,1521.5559,286.7892,1526.6184,289.3133,1524.0942,294.3758,1531.36,287.7269" style="stroke:#181818;stroke-width:1;"/><text fill="#000000" font-family="sans-serif" font-size="13" lengthAdjust="spacing" textLength="39.1333" x="1331.89" y="336.3638">valide</text></g><!--link AuthRoutes to AuthService--><g class="link" data-entity-1="ent0008" data-entity-2="ent0014" data-link-type="dependency" data-source-line="132" id="lnk27"><path codeLine="132" d="M1213.43,315.8569 C1263.98,326.2969 1320.81,339.3869 1371.89,354.2969 C1399.29,362.2969 1422.3595,369.859 1450.1095,379.769" fill="none" id="AuthRoutes-to-AuthService" style="stroke:#181818;stroke-width:1;"/><polygon fill="#181818" points="1455.76,381.7869,1448.6295,374.993,1451.0513,380.1053,1445.939,382.527,1455.76,381.7869" style="stroke:#181818;stroke-width:1;"/></g><!--link AccountRoutes to AccountService--><g class="link" data-entity-1="ent0009" data-entity-2="ent0015" data-link-type="dependency" data-source-line="133" id="lnk28"><path codeLine="133" d="M1245.82,485.9169 C1289.62,499.8369 1336.44,514.6569 1379.89,528.2969 C1400.36,534.7269 1416.1012,539.6535 1437.4312,546.2935" fill="none" id="AccountRoutes-to-AccountService" style="stroke:#181818;stroke-width:1;"/><polygon fill="#181818" points="1443.16,548.0769,1435.7557,541.5826,1438.386,546.5907,1433.3778,549.221,1443.16,548.0769" style="stroke:#181818;stroke-width:1;"/></g><!--link AuthService to Security--><g class="link" data-entity-1="ent0014" data-entity-2="ent0016" data-link-type="dependency" data-source-line="135" id="lnk29"><path codeLine="135" d="M1834.91,446.2969 C1855.32,446.2969 1869.8,446.2969 1889.64,446.2969" fill="none" id="AuthService-to-Security" style="stroke:#181818;stroke-width:1;"/><polygon fill="#181818" points="1895.64,446.2969,1886.64,442.2969,1890.64,446.2969,1886.64,450.2969,1895.64,446.2969" style="stroke:#181818;stroke-width:1;"/></g><!--link AccountService to Security--><g class="link" data-entity-1="ent0015" data-entity-2="ent0016" data-link-type="dependency" data-source-line="136" id="lnk30"><path codeLine="136" d="M1785.31,545.7069 C1802.07,539.8669 1818.83,533.9869 1834.89,528.2969 C1854.62,521.3069 1869.645,515.9301 1890.135,508.5501" fill="none" id="AccountService-to-Security" style="stroke:#181818;stroke-width:1;"/><polygon fill="#181818" points="1895.78,506.5169,1885.957,505.8033,1891.0758,508.2112,1888.668,513.33,1895.78,506.5169" style="stroke:#181818;stroke-width:1;"/></g><!--link AuthService to Account--><g class="link" data-entity-1="ent0014" data-entity-2="ent0018" data-link-type="dependency" data-source-line="138" id="lnk31"><path codeLine="138" d="M1814.15,510.8969 C1821.5,516.2569 1828.45,522.0469 1834.89,528.2969 C1885.6,577.6069 1855.03,617.5569 1895.89,675.2969 C1910.53,695.9969 1924.2476,711.6852 1942.9376,729.7652" fill="none" id="AuthService-to-Account" style="stroke:#181818;stroke-width:1;"/><polygon fill="#181818" points="1947.25,733.9369,1943.5625,724.8044,1943.6563,730.4605,1938.0002,730.5543,1947.25,733.9369" style="stroke:#181818;stroke-width:1;"/></g><!--link AccountService to Account--><g class="link" data-entity-1="ent0015" data-entity-2="ent0018" data-link-type="dependency" data-source-line="139" id="lnk32"><path codeLine="139" d="M1733.13,658.9269 C1798.69,691.8569 1875.7185,730.5435 1941.4285,763.5535" fill="none" id="AccountService-to-Account" style="stroke:#181818;stroke-width:1;"/><polygon fill="#181818" points="1946.79,766.2469,1940.5434,758.6325,1942.3221,764.0024,1936.9522,765.7811,1946.79,766.2469" style="stroke:#181818;stroke-width:1;"/></g><!--link Account to Database--><g class="link" data-entity-1="ent0018" data-entity-2="ent0019" data-link-type="dependency" data-source-line="141" id="lnk33"><path codeLine="141" d="M2176.26,823.2969 C2214.11,823.2969 2249.31,823.2969 2283.61,823.2969" fill="none" id="Account-to-Database" style="stroke:#181818;stroke-width:1;"/><polygon fill="#181818" points="2289.61,823.2969,2280.61,819.2969,2284.61,823.2969,2280.61,827.2969,2289.61,823.2969" style="stroke:#181818;stroke-width:1;"/></g><!--link Database to PostgreSQL--><g class="link" data-entity-1="ent0019" data-entity-2="ent0020" data-link-type="dependency" data-source-line="142" id="lnk34"><path codeLine="142" d="M2444.01,823.2969 C2465.16,823.2969 2481.58,823.2969 2500.78,823.2969" fill="none" id="Database-to-PostgreSQL" style="stroke:#181818;stroke-width:1;"/><polygon fill="#181818" points="2506.78,823.2969,2497.78,819.2969,2501.78,823.2969,2497.78,827.2969,2506.78,823.2969" style="stroke:#181818;stroke-width:1;"/></g><!--link LoginPage to GMN35--><g class="link" data-entity-1="ent0003" data-entity-2="ent0036" data-link-type="association" data-source-line="145" id="lnk37"><path d="M58.66,213.8869 C26.71,188.3469 6,156.3269 19.89,118.7969 C32.81,83.8669 69.47,69.0269 106.75,63.4069" fill="none" id="LoginPage-GMN35" style="stroke:#181818;stroke-width:1;stroke-dasharray:7,7;"/></g><!--link AccountsPage to GMN38--><g class="link" data-entity-1="ent0004" data-entity-2="ent0039" data-link-type="association" data-source-line="150" id="lnk40"><path d="M101.94,437.4569 C67.2,419.4069 33.69,393.1069 19.89,355.7969 C8.78,325.7869 8.78,241.8069 19.89,211.7969 C32.19,178.5469 64.45,160.3169 98.63,150.4069" fill="none" id="AccountsPage-GMN38" style="stroke:#181818;stroke-width:1;stroke-dasharray:7,7;"/></g><?plantuml-src bLTHRzis47xdho2oXwPOxAO90cnzAE0uyceWMJ8hoLu62BJ4s5maqYMfD5wH_zEyxn_uZ-qeYJ95KtNdbqJ7ZyUx--wEnpTuL6eXcQ8ufxZOlEQ4BoZEgC9fJfI2l-I9fZX_0qkRru9oZM-4qWj9upyk0OVrUWLueicSA3f49C_5bu8zCxv0I3CDMizp0lh7WdEQQZp0L_TZ7Aya0rNlQ-qFB5qoAXMcsjYWbm8CG4WzChuYaXIrBIEj9PkNcavJmMFs3yN7AASF6ck19LiiDSwOX2EOu0YjIFf8m9E3-sdq9nmweoJL1_Ydw7HoChd0Nn72yAlqueDSB1XFLe0V_gsU3p1H-DA8Reo6hnNI_0POqWLJMX9pHiBBOawbixe2PL-4p1mHbLB8fA1AWQfM_ZDU4fxbD57bl63wyEtkIk2a95qQSa9eUt8Nyj9nagIfABbMNJz7ZNJ7LGjtHBaWcU5rlti6cLWD8ODJIOcc5X92bAji3u98o9ed7-8vNUfbegXyOgdnkN9v8WNNaFRBk9OxRXlBWVT3C2-3L6SaLs-xYwBishAWEabBAG6Tb73Gzq8VDgHU2zbYT0U3w4NFgZTLwCAy45eOouvmtnO_fjizrgyNfxR6rx_VpgulBwCPvCA4A3swcKADJIQJq-ZOgp49aQFgdI5ak5hNkGV_pofnW8Aw9erzHpYR1rYmKMzCx2F5UXA4lmHDR4BUcbb_Xoo54jqobCsFS7jALZ3-WvGP_xwpymTPtAEbdzZUZLsku_6dw6eK0z4twun0RQI6wTFeR7BcCQtI9It8BjLnBNSYM3NP6VrSKgLzeLe9hhOzPLpRPxbmbr_2fzT8ZyHT6vg5SSMFBxshOkzBlTCxKOfczzDnP2wSpRT53lbYxZEusypLyylaBFhL3rPTztMqsWRXHYtG60pMjAVKJGp3Ok3ME6gl9JSTQY3SAG-4vHHwjTQqMDLA0WKbgOAIwc9L7xX9TPWT59Xn64BaGlK0NdgYutLGZzLzpRFRGBnQTDpOrq9TwFzfezrz8KzJ8UaxHQ4CcLvRz-Bck-FOagXbU-4VXiXzef8zh7SnsrH8Z99mI82KH8j76YGkr5WhS3TPFfSmY2LIvDGgERBIh1A76ipLzKLq2OK3S-KeDsMwhgwIw3oAl9efO3pC-ogy4wkxk-a5PfaZYM66v8izWrm3waGhe0CSSQJd0hu9nqn1Q3ImxwnDkQOBAd5JGVNTPkl8mLq02RUiW65Sf8y017zO7bfl4imKOryojJDv4v-BvhiJ8Ch14jVIfYYXrbDu5wmzxhFveKETFG4VR9y4Vt5RTDMXsmM4jYFrOF1nPmf3dKbqY-XKE48xmvj1EeF41_pfzlO6XKQh2jcvonimSlOFXnyxbzK7_4HobhNckR3kbT8YNNNMEiz9TzLpqFVDzW0KyAPTszdLW55_291TguGsEL2R9KRgiiU5fdWkj1O55W_Rzn6wYmV7n-zHzRvxXjGnZxXiyvhQRqHvXitk7HqkuxMQ4_GRZ096IVK25L0Uj7eLois_S9dsgseZOTISdA4O3322pMkb2N9oywrIrEJtLjL_?></g></svg>